<svg viewBox="0 0 22.019 22.0289" fill="none" xmlns="http://www.w3.org/2000/svg" xmlns:xlink="http://www.w3.org/1999/xlink">
    <defs/>
    <path id="Union" d="M3.24 3.22C7.53 -1.08 14.5 -1.08 18.79 3.21C23.09 7.51 23.08 14.48 18.79 18.77C15.44 22.13 10.47 22.86 6.4 20.99C5.82 20.75 5.57 20.67 5.38 20.67C5.26 20.67 5 20.73 4.58 20.87C4.18 21.01 3.73 21.19 3.28 21.38L3.26 21.39C2.84 21.56 2.38 21.75 2.01 21.87C1.82 21.93 1.6 21.99 1.38 22.01C1.28 22.03 1.13 22.03 0.96 22C0.8 21.97 0.55 21.9 0.34 21.68C-0.04 21.3 -0.02 20.83 0.01 20.65C0.03 20.43 0.1 20.22 0.16 20.06C0.25 19.82 0.39 19.52 0.52 19.23C0.56 19.14 0.61 19.05 0.64 18.96C1.02 18.13 1.33 17.32 1.33 16.62C1.33 16.43 1.25 16.18 1.02 15.6C-0.85 11.54 -0.12 6.57 3.24 3.22ZM17.38 4.63C13.87 1.12 8.16 1.12 4.65 4.63C1.9 7.38 1.3 11.45 2.85 14.79C2.86 14.8 2.86 14.82 2.87 14.83L2.89 14.88C3.09 15.38 3.33 15.99 3.33 16.62C3.33 17.67 2.93 18.72 2.59 19.5C3.01 19.33 3.48 19.13 3.92 18.98C4.37 18.83 4.9 18.67 5.37 18.67L5.38 18.67C6.01 18.67 6.62 18.92 7.11 19.11L7.17 19.14C7.19 19.15 7.2 19.15 7.22 19.16C10.56 20.7 14.63 20.11 17.38 17.36C20.89 13.85 20.9 8.15 17.38 4.63ZM7.99 11C7.99 11.55 7.55 12 6.99 12C6.44 12 5.99 11.55 5.99 11C5.99 10.44 6.44 10 6.99 10C7.55 10 7.99 10.44 7.99 11ZM10.99 12C11.55 12 11.99 11.55 11.99 11C11.99 10.44 11.55 10 10.99 10C10.44 10 9.99 10.44 9.99 11C9.99 11.55 10.44 12 10.99 12ZM14.99 12C15.55 12 15.99 11.55 15.99 11C15.99 10.44 15.55 10 14.99 10C14.44 10 13.99 10.44 13.99 11C13.99 11.55 14.44 12 14.99 12Z" fill="#1D1E21" fill-opacity="1.000000" fill-rule="evenodd"/>
</svg>

