<svg viewBox="0 0 22 22" fill="none" xmlns="http://www.w3.org/2000/svg" xmlns:xlink="http://www.w3.org/1999/xlink">
    <defs/>
    <path id="Union"
          d="M11 22C17.07 22 22 17.07 22 11C22 4.92 17.07 0 11 0C4.92 0 0 4.92 0 11C0 17.07 4.92 22 11 22ZM11 20C15.97 20 20 15.97 20 11C20 6.02 15.97 2 11 2C6.02 2 2 6.02 2 11C2 15.97 6.02 20 11 20ZM15.95 7.28C16.06 6.92 15.96 6.54 15.69 6.28C15.43 6.02 15.04 5.93 14.69 6.04L8.64 7.99C8.33 8.09 8.09 8.33 7.99 8.64L6.04 14.69C5.93 15.04 6.02 15.43 6.28 15.69C6.54 15.96 6.92 16.06 7.28 15.95L13.47 14.15C13.8 14.05 14.05 13.8 14.15 13.47L15.95 7.28ZM9.74 9.74L8.53 13.51L12.38 12.38L9.74 9.74Z"
          fill="#1D1E21" fill-opacity="1.000000" fill-rule="evenodd"/>
</svg>
