<svg viewBox="0 0 17.5 17.5" fill="none" xmlns="http://www.w3.org/2000/svg" xmlns:xlink="http://www.w3.org/1999/xlink">
    <defs/>
    <path id="Union" d="M0 8.75C0 3.91 3.91 0 8.75 0C13.58 0 17.5 3.91 17.5 8.75C17.5 13.58 13.58 17.5 8.75 17.5C3.91 17.5 0 13.58 0 8.75ZM8.75 1.5C4.74 1.5 1.5 4.74 1.5 8.75C1.5 12.75 4.74 16 8.75 16C12.75 16 16 12.75 16 8.75C16 4.74 12.75 1.5 8.75 1.5ZM9.75 4.75C9.75 5.3 9.3 5.75 8.75 5.75C8.19 5.75 7.75 5.3 7.75 4.75C7.75 4.19 8.19 3.75 8.75 3.75C9.3 3.75 9.75 4.19 9.75 4.75ZM8.75 7.25C9.3 7.25 9.75 7.69 9.75 8.25L9.75 12.75C9.75 13.3 9.3 13.75 8.75 13.75C8.19 13.75 7.75 13.3 7.75 12.75L7.75 8.25C7.75 7.69 8.19 7.25 8.75 7.25Z" fill="#8F98A6" fill-opacity="1.000000" fill-rule="evenodd"/>
</svg>

