<svg viewBox="0 0 22.0004 22" fill="none" xmlns="http://www.w3.org/2000/svg" xmlns:xlink="http://www.w3.org/1999/xlink">
    <defs/>
    <path id="Union" d="M0.32 5.98C0.46 3.88 0.53 2.82 0.98 2.02C1.38 1.32 1.98 0.75 2.71 0.4C3.54 0 4.6 0 6.71 0L15.28 0C17.39 0 18.45 0 19.28 0.4C20.01 0.75 20.61 1.32 21.01 2.02C21.46 2.82 21.53 3.88 21.67 5.98L21.87 9.18C22.03 11.55 22.1 12.74 21.69 13.65C21.32 14.45 20.71 15.11 19.93 15.52C19.05 16 17.86 16 15.49 16L6.5 16C4.13 16 2.94 16 2.06 15.52C1.28 15.11 0.67 14.45 0.3 13.65C-0.11 12.74 -0.04 11.55 0.12 9.18L0.32 5.98ZM3.93 18C3.93 17.44 4.38 17 4.93 17L17.06 17C17.61 17 18.06 17.44 18.06 18C18.06 18.55 17.61 19 17.06 19L4.93 19C4.38 19 3.93 18.55 3.93 18ZM5.95 21C5.95 20.44 6.4 20 6.95 20L15.04 20C15.59 20 16.04 20.44 16.04 21C16.04 21.55 15.59 22 15.04 22L6.95 22C6.4 22 5.95 21.55 5.95 21Z" fill="#1D1E21" fill-opacity="1.000000" fill-rule="evenodd"/>
</svg>
