<svg viewBox="0 0 122 52" fill="none" xmlns="http://www.w3.org/2000/svg" xmlns:xlink="http://www.w3.org/1999/xlink">
    <defs>
        <clipPath id="clip14_2509">
            <rect id="logo sign" rx="0.000000" width="27.000000" height="31.000000" transform="translate(10.500000 10.500000)" fill="white" fill-opacity="0"/>
        </clipPath>
    </defs>
    <g clip-path="url(#clip14_2509)">
        <path id="Fill 18"
              d="M20.56 37.91C16.63 36.7 13.97 33.13 14 29.12C14.07 26.29 15.52 23.67 17.89 22.05C20.86 19.84 22.83 16.59 23.4 13C27.04 16.43 28.58 21.48 27.44 26.3C29.97 25.45 31.58 23.03 31.34 20.43C31.34 20.43 34.94 25.25 33.75 30.96C33.21 34.01 31.7 36.82 29.44 39C25.31 36.98 22.36 33.21 21.46 28.79C19.43 31.43 19.09 34.95 20.56 37.91Z"
              fill="#000000" fill-opacity="1.000000" fill-rule="evenodd"/>
    </g>
    <path id="logo text"
          d="M82.42 21.33L82.42 40.03L85.25 40.03L85.25 32.78Q85.47 33.19 85.76 33.55Q86.29 34.17 87.05 34.59Q87.16 34.65 87.27 34.71Q88.38 35.25 89.75 35.25Q91.36 35.25 92.61 34.58Q92.77 34.49 92.93 34.39Q93.24 34.2 93.52 33.96Q94.46 33.17 95.03 31.95Q95.77 30.35 95.77 28.17Q95.77 25.98 95.03 24.4Q94.47 23.21 93.56 22.42Q93.27 22.16 92.93 21.95Q92.74 21.83 92.55 21.73Q91.32 21.08 89.75 21.08Q88.35 21.08 87.23 21.64Q87.1 21.71 86.97 21.78Q86.17 22.25 85.64 22.93Q85.38 23.27 85.18 23.65L85.18 21.33L82.42 21.33ZM46.12 21.33L46.12 35L48.62 35L48.62 25.73L52.7 32.78L54.08 32.78L58.17 25.73L58.17 35L60.65 35L60.65 21.33L58.33 21.33L53.4 29.98L48.45 21.33L46.12 21.33ZM67.77 23.6L67.77 35L70.6 35L70.6 23.6L75.44 23.6L75.44 21.33L62.95 21.33L62.95 23.6L67.77 23.6ZM102.91 34.63L100.48 40.03L103.44 40.03L111.59 21.33L108.68 21.33L104.42 31.72L100.22 21.33L97.2 21.33L102.91 34.63ZM90.92 32.6Q90.12 33.06 89.05 33.06Q87.99 33.06 87.19 32.61Q86.66 32.3 86.24 31.8Q85.18 30.54 85.18 28.17Q85.18 25.78 86.24 24.54Q86.65 24.05 87.16 23.76Q87.98 23.29 89.05 23.29Q90.14 23.29 90.95 23.76Q91.46 24.06 91.86 24.54Q92.92 25.78 92.92 28.17Q92.92 30.54 91.86 31.8Q91.45 32.3 90.92 32.6ZM75.27 31.67L75.27 35L78.6 35L78.6 31.67L75.27 31.67Z"
          fill="#000000" fill-opacity="1.000000" fill-rule="evenodd"/>
</svg>
