<svg viewBox="0 0 20 22.075" fill="none" xmlns="http://www.w3.org/2000/svg" xmlns:xlink="http://www.w3.org/1999/xlink">
    <defs/>
    <path id="Union" d="M17.95 13.5C16.92 13.14 16.98 10.75 17.02 8.71C17.04 7.85 17.06 7.06 17 6.5C16.5 2 13 0 10 0C7 0 3.5 2 3 6.5C2.93 7.1 2.94 7.92 2.96 8.78C3 10.83 3.05 13.14 2 13.5C0.79 13.78 0 14.71 0 16C0 17.24 0.81 18.3 2.04 18.49C3.65 18.73 6.25 19 10 19C13.74 19 16.34 18.73 17.95 18.49C19.18 18.3 20 17.24 20 16C20 14.71 19.16 13.78 17.95 13.5ZM2.54 15.42L2.46 15.44C2.23 15.49 2.13 15.58 2.09 15.63C2.06 15.68 2 15.78 2 16C2 16.18 2.05 16.3 2.11 16.38C2.17 16.45 2.24 16.49 2.34 16.51C3.85 16.74 6.35 17 10 17C13.64 17 16.14 16.74 17.65 16.51C17.75 16.49 17.82 16.45 17.88 16.38C17.94 16.3 18 16.18 18 16C18 15.81 17.94 15.72 17.89 15.66C17.84 15.59 17.72 15.5 17.48 15.44L17.39 15.42L17.3 15.39C15.93 14.91 15.46 13.63 15.28 12.97C15.08 12.2 15.02 11.32 15.01 10.57C14.99 9.92 15.01 9.24 15.02 8.65C15.02 8.52 15.03 8.4 15.03 8.28C15.04 7.55 15.04 7.04 15.01 6.72C14.64 3.4 12.16 2 10 2C7.83 2 5.35 3.4 4.98 6.72C4.94 7.08 4.94 7.61 4.95 8.34C4.96 8.46 4.96 8.59 4.96 8.72C4.97 9.32 4.99 9.99 4.97 10.62C4.95 11.37 4.89 12.25 4.68 13.02C4.48 13.71 3.98 14.94 2.63 15.39L2.54 15.42ZM6.5 20.95C6.52 20.39 6.99 19.97 7.54 20C9.51 20.09 10.48 20.09 12.45 20C13 19.97 13.47 20.39 13.49 20.95C13.52 21.5 13.1 21.97 12.55 21.99C10.51 22.1 9.48 22.1 7.45 21.99C6.89 21.97 6.47 21.5 6.5 20.95Z" fill="#1D1E21" fill-opacity="1.000000" fill-rule="evenodd"/>
</svg>

