<svg viewBox="0 0 17.9995 22.0038" fill="none" xmlns="http://www.w3.org/2000/svg" xmlns:xlink="http://www.w3.org/1999/xlink">
    <defs/>
    <path id="Union" d="M0.76 3.81C0.86 1.67 2.62 0 4.76 0L13.23 0C15.37 0 17.13 1.67 17.23 3.81L17.99 19.9C18.08 21.68 15.96 22.68 14.64 21.47L10.35 17.52C9.58 16.82 8.41 16.82 7.64 17.52L3.35 21.47C2.03 22.68 -0.09 21.68 0 19.9L0.76 3.81ZM4.76 2C3.69 2 2.81 2.83 2.76 3.9L2 19.99L6.29 16.05C7.82 14.64 10.17 14.64 11.7 16.05L15.99 19.99L15.23 3.9C15.18 2.83 14.3 2 13.23 2L4.76 2Z" fill="#1D1E21" fill-opacity="1.000000" fill-rule="evenodd"/>
</svg>
