<svg viewBox="0 0 24 20" fill="none" xmlns="http://www.w3.org/2000/svg" xmlns:xlink="http://www.w3.org/1999/xlink">
    <defs/>
    <path id="Union"
          d="M0.39 4.68C0 5.81 0 7.2 0 10C0 12.79 0 14.18 0.39 15.31C1.09 17.32 2.67 18.9 4.68 19.6C5.81 20 7.2 20 10 20L14 20C16.79 20 18.18 20 19.31 19.6C21.32 18.9 22.9 17.32 23.6 15.31C24 14.18 24 12.79 24 10C24 7.2 24 5.81 23.6 4.68C22.9 2.67 21.32 1.09 19.31 0.39C18.18 0 16.79 0 14 0L10 0C7.2 0 5.81 0 4.68 0.39C2.67 1.09 1.09 2.67 0.39 4.68ZM14 2L10 2C7.03 2 6.06 2.02 5.34 2.28C3.91 2.78 2.78 3.91 2.28 5.34C2.02 6.06 2 7.03 2 10C2 12.96 2.02 13.93 2.28 14.65C2.78 16.08 3.91 17.21 5.34 17.71C6.06 17.97 7.03 18 10 18L14 18C16.96 18 17.93 17.97 18.65 17.71C20.08 17.21 21.21 16.08 21.71 14.65C21.97 13.93 22 12.96 22 10C22 7.03 21.97 6.06 21.71 5.34C21.21 3.91 20.08 2.78 18.65 2.28C17.93 2.02 16.96 2 14 2ZM10.51 6.14C10.2 5.95 9.82 5.95 9.5 6.12C9.19 6.3 9 6.63 9 7L9 13C9 13.36 9.19 13.69 9.5 13.87C9.82 14.04 10.2 14.04 10.51 13.85L15.51 10.85C15.81 10.67 16 10.35 16 10C16 9.64 15.81 9.32 15.51 9.14L10.51 6.14Z"
          fill="#1D1E21" fill-opacity="1.000000" fill-rule="evenodd"/>
</svg>
